<?xml version="1.0" standalone="no"?><!DOCTYPE svg PUBLIC "-//W3C//DTD SVG 1.1//EN" "http://www.w3.org/Graphics/SVG/1.1/DTD/svg11.dtd"><svg height="13.36557610241821px" width="124.71977240398296px" class="SVG_root___353jb" x="0px" y="0px" viewBox="0 0 487.1 52.2" fill="#ff1940" version="1.1" xmlns="http://www.w3.org/2000/svg" xmlns:xlink="http://www.w3.org/1999/xlink"><defs xmlns="http://www.w3.org/1999/xhtml"><style type="text/css"><![CDATA[
iframe#_hjRemoteVarsFrame { display: none !important; width: 1px !important; height: 1px !important; opacity: 0 !important; pointer-events: none !important; }]]></style></defs><path d="M19,0.8H0v50.5h19c15.5,0,26.8-10.7,26.8-25.3C45.8,11.4,34.5,0.8,19,0.8z M19,42.5H9.7V9.7H19 c9.8,0,16.7,6.8,16.7,16.4C35.7,35.9,29,42.5,19,42.5z"/><path d="M88.4,0C73.3,0,61.9,11.3,61.9,26.2c0,14.8,11.3,26,26.3,26c15.1,0,26.5-11.3,26.5-26.2 C114.7,11.2,103.4,0,88.4,0z M88.4,43.3C79,43.3,72,35.9,72,26C72,16.3,79,9,88.2,9c9.3,0,16.4,7.4,16.4,17.2 C104.6,35.9,97.6,43.3,88.4,43.3z"/><path d="M157.3,0c-15.1,0-26.5,11.3-26.5,26.2c0,14.8,11.3,26,26.3,26c15.1,0,26.5-11.3,26.5-26.2 C183.6,11.2,172.3,0,157.3,0z M157.3,43.3c-9.3,0-16.4-7.4-16.4-17.2c0-9.7,7-17.1,16.2-17.1c9.3,0,16.4,7.4,16.4,17.2 C173.5,35.9,166.5,43.3,157.3,43.3z"/><path d="M243.9,17.1c0-10-7.2-16.2-18.9-16.2h-22.6v50.5h9.7V34.1h10.2l12,17.1l0.1,0.2h11.5l-13.5-19 C239.8,30.1,243.9,24.7,243.9,17.1z M212.1,9.7h12.2c6.3,0,9.8,2.8,9.8,7.8c0,4.9-3.7,7.9-9.7,7.9h-12.3V9.7z"/><path d="M284.8,0.8h-19v50.5h19c15.5,0,26.8-10.7,26.8-25.3C311.6,11.4,300.3,0.8,284.8,0.8z M284.8,42.5h-9.3V9.7h9.3 c9.8,0,16.7,6.8,16.7,16.4C301.5,35.9,294.8,42.5,284.8,42.5z"/><path d="M353.4,0.5h-8.7l-22.2,50.9h10l5.1-12h22.8l5,12h10.3L353.5,0.8L353.4,0.5z M356.7,30.7h-15.6l7.8-18.1 L356.7,30.7z"/><path d="M410.3,21.7L410.3,21.7c-9.7-2.3-11.4-3.9-11.4-7.4c0-3.3,3-5.5,7.6-5.5c4.3,0,8.7,1.6,13.2,5l0.4,0.3l5.2-7.4 l-0.4-0.3c-5.3-4.3-11.3-6.3-18.3-6.3c-10.2,0-17.4,6.1-17.4,14.9c0,9.4,6.2,12.8,16.9,15.3c9.2,2.1,10.8,3.9,10.8,7.2 c0,3.5-3.3,5.8-8.3,5.8c-5.6,0-10.3-2-15.3-6.3l-0.4-0.3l-5.9,7l0.4,0.3c5.9,5.3,13.2,8.1,21,8.1c11,0,18.2-6,18.2-15.4 C426.6,28.9,421.9,24.5,410.3,21.7z"/><polygon points="477.4,0.8 477.4,21.5 454.7,21.5 454.7,0.8 445.1,0.8 445.1,51.4 454.7,51.4 454.7,30.5 477.4,30.5 477.4,51.4 487.1,51.4 487.1,0.8 "/></svg>