<?xml version="1.0" standalone="no"?><!DOCTYPE svg PUBLIC "-//W3C//DTD SVG 1.1//EN" "http://www.w3.org/Graphics/SVG/1.1/DTD/svg11.dtd"><svg height="18px" width="38.45803698435277px" class="SVG_root___353jb" x="0px" y="0px" viewBox="0 0 150.2 70.3" fill="#ff1940" version="1.1" xmlns="http://www.w3.org/2000/svg" xmlns:xlink="http://www.w3.org/1999/xlink"><defs xmlns="http://www.w3.org/1999/xhtml"><style type="text/css"><![CDATA[
iframe#_hjRemoteVarsFrame { display: none !important; width: 1px !important; height: 1px !important; opacity: 0 !important; pointer-events: none !important; }]]></style></defs><path d="M67.3,20.1H17.5l6.8,7.8c1.2,1.4,3,2.2,4.9,2.2h52.3C79.4,24.3,73.9,20.1,67.3,20.1z"/><path d="M81.5,40.2H34.9l6.9,7.9c1.2,1.4,2.9,2.1,4.7,2.1h20.8C73.9,50.2,79.4,46,81.5,40.2z"/><path d="M102.1,40.2c0.2-1.6,0.4-3.3,0.4-5c0-1.7-0.2-3.4-0.4-5c-0.5-3.6-1.5-6.9-3-10c-1.8-3.8-4.2-7.2-7.1-10 c-6.3-6.2-15-10-24.6-10H0l6.8,7.8C8,9.2,9.8,10,11.7,10h55.6c8.2,0,15.5,4,20.1,10c2.2,2.9,3.8,6.3,4.6,10c0.3,1.6,0.5,3.3,0.5,5 s-0.2,3.4-0.5,5c-0.8,3.7-2.4,7.1-4.6,10c-4.6,6.1-11.9,10-20.1,10H52.4l6.7,7.7c1.3,1.5,2.9,2.3,5.1,2.3h3.1v0 c9.6,0,18.2-3.8,24.6-10c2.9-2.9,5.4-6.3,7.1-10C100.5,47.1,101.6,43.7,102.1,40.2z"/><path d="M130.5,30.1c-2.1-5.9-8.8-10-15.4-10h-5.1c1.1,3.2,1.9,6.6,2.3,10H130.5z"/><path d="M115.1,50.2c6.6,0,13.3-4.2,15.4-10h-18.2c-0.4,3.5-1.2,6.8-2.3,10H115.1z"/><path d="M149.8,30.1c-0.5-3.6-1.5-6.9-3-10c-1.8-3.8-4.2-7.2-7.1-10c-6.3-6.2-15-10-24.6-10H95.7 c3.5,2.9,6.6,6.3,9.2,10h10.2c8.2,0,15.5,4,20.1,10c2.2,2.9,3.8,6.3,4.6,10c0.3,1.6,0.5,3.3,0.5,5s-0.2,3.4-0.5,5 c-0.8,3.7-2.4,7.1-4.6,10c-4.6,6.1-11.9,10-20.1,10h-10.2c-2.5,3.8-5.6,7.2-9.2,10h19.4v0c9.6,0,18.2-3.8,24.6-10 c2.9-2.9,5.4-6.3,7.1-10c1.5-3.1,2.5-6.5,3-10c0.2-1.6,0.4-3.3,0.4-5C150.2,33.5,150.1,31.8,149.8,30.1z"/></svg>