<?xml version="1.0" standalone="no"?><!DOCTYPE svg PUBLIC "-//W3C//DTD SVG 1.1//EN" "http://www.w3.org/Graphics/SVG/1.1/DTD/svg11.dtd"><svg height="26px" width="26px" class="SVG_root___353jb" x="0px" y="0px" viewBox="0 0 26 26" version="1.1" xmlns="http://www.w3.org/2000/svg" xmlns:xlink="http://www.w3.org/1999/xlink"><defs xmlns="http://www.w3.org/1999/xhtml"><style type="text/css"><![CDATA[
iframe#_hjRemoteVarsFrame { display: none !important; width: 1px !important; height: 1px !important; opacity: 0 !important; pointer-events: none !important; }]]></style></defs><path d="M5.278,0c0.101,0,0.203,0,0.304,0c0.143,0.036,0.186,0.14,0.186,0.273c0,0.04,0.001,0.081,0.001,0.121 c-0.002,0.81-0.005,1.619-0.007,2.429C5.76,3.713,5.76,4.603,5.759,5.494c0,0.245-0.004,0.489,0.004,0.734 c0.005,0.147,0.066,0.214,0.21,0.215c0.202,0.002,0.405-0.01,0.606-0.028c0.113-0.01,0.189-0.083,0.208-0.2 C6.8,6.141,6.811,6.065,6.812,5.99c0.003-0.282,0.003-0.565,0.003-0.847C6.814,3.528,6.813,1.914,6.812,0.3 c0-0.169,0-0.253,0.199-0.3c3.933,0,7.866,0,11.798,0c0.027,0.003,0.055,0.009,0.082,0.009c0.702,0.002,1.404,0.004,2.106,0.003 c0.356,0,0.708,0.036,1.054,0.118c1.09,0.261,1.991,0.83,2.72,1.671c0.582,0.672,0.968,1.442,1.128,2.319 c0.085,0.469,0.095,0.944,0.098,1.417c0.006,0.923-0.002,1.847-0.004,2.77c0,0.144-0.04,0.182-0.186,0.185 c-0.03,0.001-0.061,0.001-0.091,0.001c-2.582,0-5.164-0.001-7.746,0.004c-0.173,0-0.305-0.049-0.428-0.167 c-0.339-0.324-0.712-0.607-1.115-0.848c-1.436-0.861-2.981-1.161-4.633-0.86c-1.286,0.235-2.4,0.821-3.357,1.703 C8.31,8.443,8.174,8.496,8,8.496C5.403,8.493,2.806,8.493,0.209,8.493c-0.158,0-0.197-0.037-0.196-0.197 c0-0.232,0.005-0.464,0.004-0.696C0.011,6.621-0.031,5.643,0.047,4.665C0.094,4.071,0.227,3.501,0.48,2.96 c0.382-0.817,0.97-1.464,1.681-2.008C2.172,0.943,2.186,0.94,2.201,0.934c0.002,0.014,0.003,0.021,0.003,0.029 C2.203,2.506,2.201,4.05,2.2,5.594c0,0.214-0.006,0.429,0.004,0.643c0.007,0.144,0.068,0.206,0.21,0.207 c0.194,0.001,0.39-0.009,0.583-0.029c0.129-0.013,0.193-0.09,0.21-0.223c0.011-0.082,0.016-0.166,0.016-0.249 c0.002-1.746,0.002-3.492,0.003-5.238c0-0.038-0.001-0.076-0.006-0.113c-0.024-0.175-0.013-0.196,0.144-0.27 c0.156-0.074,0.316-0.137,0.491-0.15c0.126-0.009,0.158,0.024,0.14,0.146C3.99,0.363,3.985,0.409,3.985,0.454 c0,1.579,0.002,3.159,0.002,4.738c0,0.346-0.003,0.691-0.002,1.037c0,0.148,0.056,0.212,0.205,0.215 C4.377,6.448,4.565,6.444,4.752,6.43c0.173-0.013,0.245-0.09,0.27-0.263C5.035,6.07,5.039,5.971,5.04,5.873 c0.003-0.926,0.007-1.852,0.006-2.778C5.044,2.177,5.038,1.259,5.033,0.34C5.032,0.094,5.055,0.061,5.278,0z M19.233,4.375 C19.233,4.375,19.233,4.375,19.233,4.375c0.001,0.482-0.007,0.963,0.003,1.445c0.01,0.468,0.344,0.781,0.817,0.781 c0.914,0.001,1.829,0.001,2.743,0c0.488-0.001,0.829-0.335,0.831-0.821c0.003-0.933,0.004-1.866,0-2.8 C23.625,2.492,23.3,2.159,22.81,2.155c-0.922-0.007-1.844-0.007-2.766,0c-0.482,0.004-0.796,0.312-0.808,0.79 C19.224,3.421,19.233,3.898,19.233,4.375z"/><path d="M7.578,9.282c-1.009,1.496-1.437,3.112-1.141,4.891C6.695,15.727,7.4,17.038,8.6,18.076 c2.401,2.077,5.845,2.215,8.367,0.322c1.432-1.074,2.292-2.505,2.572-4.266c0.279-1.761-0.149-3.369-1.151-4.85 c0.041,0,0.067,0,0.094,0c2.156-0.001,4.313-0.002,6.469-0.003c0.238,0,0.476-0.002,0.715-0.002c0.046,0,0.091,0.001,0.137,0.007 c0.111,0.013,0.174,0.068,0.181,0.179c0.011,0.148,0.012,0.297,0.012,0.446c-0.001,1.075-0.004,2.15-0.005,3.224 c-0.002,2.621,0.003,5.243-0.007,7.864c-0.005,1.287-0.474,2.402-1.344,3.347c-0.766,0.833-1.712,1.361-2.83,1.567 c-0.282,0.052-0.573,0.081-0.861,0.081c-5.281,0.005-10.562,0.016-15.842-0.003c-2.385-0.008-4.364-1.583-4.934-3.847 c-0.113-0.45-0.159-0.908-0.159-1.371c0.002-2.445,0.002-4.89,0-7.334c-0.001-1.251-0.006-2.503-0.009-3.754 c0-0.055,0.003-0.111,0.009-0.166C0.03,9.361,0.099,9.29,0.258,9.283C0.425,9.275,0.592,9.277,0.76,9.277 c2.237,0.001,4.475,0.003,6.712,0.005C7.502,9.282,7.532,9.282,7.578,9.282z"/><path d="M13.018,8.023c2.827,0.001,5.118,2.29,5.114,5.109c-0.004,2.829-2.288,5.087-5.142,5.086 c-2.83-0.001-5.122-2.286-5.121-5.104C7.869,10.308,10.182,8.021,13.018,8.023z M16.793,13.181c0.012-2.089-1.619-3.847-3.826-3.817 c-2.091,0.029-3.781,1.763-3.718,3.826c0.064,2.084,1.751,3.753,3.878,3.696C15.132,16.831,16.813,15.144,16.793,13.181z"/></svg>