<?xml version="1.0" standalone="no"?><!DOCTYPE svg PUBLIC "-//W3C//DTD SVG 1.1//EN" "http://www.w3.org/Graphics/SVG/1.1/DTD/svg11.dtd"><svg height="26px" width="26px" class="SVG_root___353jb" x="0px" y="0px" viewBox="0 0 26 26" version="1.1" xmlns="http://www.w3.org/2000/svg" xmlns:xlink="http://www.w3.org/1999/xlink"><defs xmlns="http://www.w3.org/1999/xhtml"><style type="text/css"><![CDATA[
iframe#_hjRemoteVarsFrame { display: none !important; width: 1px !important; height: 1px !important; opacity: 0 !important; pointer-events: none !important; }]]></style></defs><path d="M26,4.999c-0.957,0.421-1.985,0.705-3.064,0.833c1.101-0.655,1.947-1.692,2.345-2.928 c-1.031,0.607-2.172,1.047-3.387,1.284c-0.973-1.029-2.359-1.671-3.894-1.671c-2.946,0-5.334,2.37-5.334,5.292 c0,0.415,0.047,0.819,0.138,1.206C8.371,8.795,4.441,6.688,1.81,3.486C1.351,4.268,1.088,5.177,1.088,6.147 c0,1.836,0.942,3.456,2.373,4.405c-0.874-0.028-1.697-0.266-2.416-0.662C1.044,9.913,1.044,9.935,1.044,9.957 c0,2.564,1.839,4.703,4.279,5.19c-0.448,0.121-0.919,0.186-1.405,0.186c-0.344,0-0.678-0.033-1.004-0.095 c0.679,2.103,2.649,3.633,4.983,3.675c-1.826,1.42-4.126,2.266-6.625,2.266c-0.431,0-0.855-0.025-1.272-0.074 c2.361,1.502,5.165,2.378,8.177,2.378c9.812,0,15.177-8.065,15.177-15.059c0-0.229-0.005-0.458-0.015-0.685 C24.381,6.993,25.285,6.061,26,4.999z"/></svg>